<svg xmlns="http://www.w3.org/2000/svg" id="Layer_2" viewBox="0 0 33.95 33.95"><defs fill="#040802"><style>.cls-1,.cls-2,.cls-3{fill:#53d0aa}.cls-2,.cls-3,.cls-4{stroke:#eefcf3;stroke-miterlimit:10}.cls-2,.cls-3{stroke-width:.83px}.cls-4{fill:none;stroke-dasharray:0 0 .83 5.84;stroke-width:3.34px}.cls-3{stroke-linecap:round}</style></defs><g id="icons"><circle class="cls-1" cx="16.98" cy="16.98" r="16.98" fill="#040802"/><path class="cls-3" d="M20.69 23.15a7.516 7.516 0 0 1-4.31 1.34c-4.19 0-7.59-3.4-7.59-7.59s3.4-7.59 7.59-7.59c3.67 0 6.73 2.6 7.43 6.06" fill="#040802"/><circle class="cls-4" cx="16.38" cy="16.9" r="10.59" fill="#040802"/><path class="cls-3" d="M19.98 17.01c-.66.64-1.44.68-2.09.03-.62-.61-1.32-.96-2.06-.96s-1.44.35-2.06.96c-.66.65-1.43.61-2.09-.03-.75-.73-1.61-1.07-2.53-.88m10.83 3.96c-.66.64-1.44.68-2.09.03-.62-.61-1.32-.96-2.06-.96s-1.44.35-2.06.96c-.66.65-1.43.61-2.09-.03-.75-.73-1.61-1.07-2.53-.88" fill="#040802"/><path class="cls-2" d="M30.72 14.57s-10.14.6-8.19 10.29c0 0 9.62.75 8.19-10.29z" fill="#040802"/><path class="cls-3" d="M29.37 16.9s-4.66 3.68-6.54 7.59" fill="#040802"/></g></svg>