<svg xmlns="http://www.w3.org/2000/svg" id="Layer_2" viewBox="0 0 34.99 34.99"><defs fill="#040802"><style>.cls-1{stroke-width:.95px}.cls-1,.cls-2,.cls-3,.cls-4{fill:#53d0aa}.cls-1,.cls-2,.cls-4{stroke:#eefcf3;stroke-linecap:round;stroke-miterlimit:10}.cls-2{stroke-width:.86px}.cls-4{stroke-width:.91px}</style></defs><g id="icons"><circle class="cls-3" cx="17.5" cy="17.5" r="17.5" fill="#040802"/><path class="cls-2" d="M4.64 12.15l3.32-3.13a1.34 1.34 0 0 1 1.86.02c.68.67 1.56 1.53 1.94 1.89.68.64 1.77.44 2.94.08s4.13-.81 7.44 2.61S26.2 18 27.4 19.19s-.17 3.09-1.18 3.22c0 0-.76 2.15-2.47 2.33 0 0-1.09 2.91-3.9 1.13 0 0-2.07 2.11-4.04.58L4.57 14.7c-.69-.72-.66-1.87.07-2.55zm18.48 7.31l3.09 2.95m-5.4-.69l3.09 2.95m-5.63-.78l2.34 2.31" fill="#040802"/><path class="cls-2" d="M16.42 15.47c-1.66-1.36 3.09-4.95 4.74-5.98s2.3.69 3.47.56l2.23-1.25c.52-.29 1.18-.14 1.52.35l2.92 4.17c.33.47.27 1.11-.15 1.5l-4.06 3.9s-3.99-4.06-4.96-5.1-2.02.1-2.99 1.54-2.72.31-2.72.31z" fill="#040802"/><rect class="cls-2" x="7.88" y="17.22" width="2.86" height="5" rx="1.43" ry="1.43" transform="rotate(51.02 9.322 19.723)" fill="#040802"/><rect class="cls-1" x="9.32" y="19.16" width="2.86" height="6.11" rx="1.43" ry="1.43" transform="rotate(51.02 10.756 22.216)" fill="#040802"/><rect class="cls-4" x="11.39" y="21.4" width="2.86" height="5.63" rx="1.43" ry="1.43" transform="rotate(51.02 12.817 24.217)" fill="#040802"/><rect class="cls-2" x="13.66" y="23.66" width="2.86" height="5" rx="1.43" ry="1.43" transform="rotate(51.02 15.097 26.165)" fill="#040802"/></g></svg>