<svg xmlns="http://www.w3.org/2000/svg" id="Layer_2" viewBox="0 0 33.95 33.95"><defs fill="#040802"><style>.cls-1,.cls-2,.cls-3{fill:#53d0aa}.cls-2,.cls-3{stroke:#eefcf3;stroke-miterlimit:10;stroke-width:.83px}.cls-3{stroke-linecap:round}</style></defs><g id="icons"><circle class="cls-1" cx="16.98" cy="16.98" r="16.98" fill="#040802"/><path class="cls-3" d="M5.71 10.89h20.17v12.69H5.71z" fill="#040802"/><path class="cls-3" d="M15.96 23.16s-2.86-2.65-8.3-1.43V9.21s5.37-1.65 8.3 1.29c0 0 4.22-2.93 8.23-1.36v11.88s-4.29-1.36-8.23 2.15zm1.84-11.15c1.16-.49 2.75-.96 4.44-.83m-12.19.09c1.13-.09 3.24.07 4.44.9m3.31 3.59c1.16-.49 2.75-.96 4.44-.83m-12.19.1c1.13-.09 3.24.07 4.44.9m3.31 3.59c1.16-.49 2.75-.96 4.44-.83m-12.19.09c1.13-.09 3.24.07 4.44.9m1.44-9.39v12.7" fill="#040802"/><path class="cls-2" d="M29.65 18.14s-9.76-2.82-11.15 6.97c0 0 8.81 3.91 11.15-6.97z" fill="#040802"/><path class="cls-3" d="M27.6 19.89s-5.62 1.92-8.69 4.97c0 0-1.97 1.39-2.08 3.99" fill="#040802"/></g></svg>