<svg xmlns="http://www.w3.org/2000/svg" id="Layer_2" viewBox="0 0 33.02 33.02"><defs fill="#040802"><style>.cls-1{stroke:#eefcf3;stroke-linecap:round;stroke-miterlimit:10;stroke-width:.81px}.cls-1,.cls-2{fill:#53d0aa}</style></defs><g id="icons"><circle class="cls-2" cx="16.51" cy="16.51" r="16.51" fill="#040802"/><path class="cls-1" d="M7.23 12.5c1.54-3.84 5.3-6.56 9.7-6.56 5.77 0 10.45 4.68 10.45 10.45S22.7 26.84 16.93 26.84c-2.21 0-4.26-.69-5.95-1.86" fill="#040802"/><path class="cls-1" d="M5.53 14.4h5.11v4.14H5.53z" fill="#040802"/><path class="cls-1" d="M15.27 20.15l-5.11-1.61V14.4l5.11-2.25v8zM8.7 18.78H6.51l1.21 3.05h2.19L8.7 18.78zm9.08-6.04l2.65-1.56m0 9.01l-2.65-1.56m.5-2.65h3.58m-7.57 10.27s-.46-.84.63-1.47 1.14-1.01 1.18-2.36 1.68-2.06 2.48-.88 1.68 2.86 2.65 2.57 2.44.17 2.44.17M16.43 6.39s-1.26 2.48.8 2.78 2.06-1.35 3.49-.17 2.82-.21 2.82-.21M12.27 7.14s-.21 1.01.76 1.81.55 2.73-1.09 2.65-1.01-.08-2.1.42-1.94-.46-1.94-.46" fill="#040802"/></g></svg>