<svg xmlns="http://www.w3.org/2000/svg" id="Layer_2" viewBox="0 0 33.95 33.95"><defs fill="#040802"><style>.cls-1,.cls-2{fill:#53d0aa}.cls-2{stroke:#eefcf3;stroke-linecap:round;stroke-miterlimit:10;stroke-width:.83px}</style></defs><g id="icons"><circle class="cls-1" cx="16.98" cy="16.98" r="16.98" fill="#040802"/><path class="cls-2" d="M13.37 28.58v-3.64c0-1.5-1.62-1.05-3.27-1.05s-1.2-1.92-1.2-3.15-.86-1.54-1.35-2.4 1.35-1.35 1.54-2.44 0-1.62 0-3.94 1.77-7.14 9.13-7.14 9.65 7.44 7.74 12.81c-1.92 5.37-2.1 2.4-2.1 4.92v6.01" fill="#040802"/><path class="cls-2" d="M22.37 10.62c-1.14-1.05-2.98-1.04-4.15.07-.08.08-.34.08-.41 0-1.17-1.11-3.01-1.12-4.15-.07-1.21 1.11-1.29 3.09-.11 4.33l4.43 4.7 4.5-4.7c1.18-1.25 1.1-3.22-.11-4.33z" fill="#040802"/></g></svg>